<?xml version="1.0" encoding="utf-8"?>
<!-- Generator: Adobe Illustrator 26.4.0, SVG Export Plug-In . SVG Version: 6.00 Build 0)  -->
<svg version="1.1" id="Group_3715" xmlns="http://www.w3.org/2000/svg" xmlns:xlink="http://www.w3.org/1999/xlink" x="0px" y="0px"
	 viewBox="0 0 30.1 20.2" style="enable-background:new 0 0 30.1 20.2;" xml:space="preserve">
<style type="text/css">
	.st0{opacity:0.33;}
	.st1{clip-path:url(#SVGID_00000096762113896581571630000006485438561374406547_);}
	.st2{fill:url(#Rectangle_380_00000039129862845481932050000017741071588000861365_);}
	.st3{opacity:0.3;}
	.st4{opacity:0.42;}
	.st5{fill-rule:evenodd;clip-rule:evenodd;fill:#FFFFFF;}
	.st6{opacity:0.21;}
	.st7{clip-path:url(#SVGID_00000165956777301046526390000014801033597357651610_);}
	.st8{fill-rule:evenodd;clip-rule:evenodd;fill:#0C0C0E;}
	.st9{opacity:0.2;fill:url(#Path_3630_00000160150159579276056220000014204115468835957175_);}
	.st10{opacity:0.24;fill:url(#Path_3631_00000070834181004976120190000015893094772195670179_);enable-background:new    ;}
</style>
<g class="st0">
	<defs>
		<path id="SVGID_1_" class="st0" d="M18.8,0c-1,0-2,0.6-2.5,1.5l-4.1,7.2L8,15.8c-0.8,1.4-0.3,3.2,1.1,4c0.4,0.2,0.9,0.4,1.4,0.4
			h0.1l0.1-0.1c8.2-4.8,8.4-4.8,16.4,0.1c1.6,0,2.9-1.2,3-2.9c0-0.5-0.1-1.1-0.4-1.5l-3.6-6.2l-2.7-4.7l-2-3.4
			C20.9,0.6,19.9,0,18.8,0L18.8,0z"/>
	</defs>
	<clipPath id="SVGID_00000122713416958814091210000005768496551193598910_">
		<use xlink:href="#SVGID_1_"  style="overflow:visible;"/>
	</clipPath>
	
		<g id="Group_3713" transform="translate(7.631)" style="clip-path:url(#SVGID_00000122713416958814091210000005768496551193598910_);">
		
			<linearGradient id="Rectangle_380_00000168080468425874320870000008527278597218902693_" gradientUnits="userSpaceOnUse" x1="-279.9386" y1="296.6417" x2="-279.0216" y2="295.7997" gradientTransform="matrix(23.846 -0.6438 -0.5633 -20.864 6844.4619 6011.9546)">
			<stop  offset="0" style="stop-color:#144EDE"/>
			<stop  offset="1" style="stop-color:#63EAFB"/>
		</linearGradient>
		<polygon id="Rectangle_380" style="fill:url(#Rectangle_380_00000168080468425874320870000008527278597218902693_);" points="
			-1,0 22.9,-0.6 23.4,20.2 -0.4,20.9 		"/>
	</g>
</g>
<g id="Group_3714" transform="translate(7.651 14.71)" class="st3">
	<g id="Group_640" transform="translate(0 0)">
		<g id="Group_632" class="st4">
			<g id="Group_631">
				<g id="Group_641">
					<path id="Path_3554" class="st5" d="M0,2.9L0,2.9c7.6-5.4,14.1-1.5,19.5,2.6C17,3.1,14,1.3,10.7,0.3C6.9-0.5,3,0.4,0,2.9"/>
				</g>
			</g>
		</g>
		<g id="Group_635" transform="translate(0 0.286)" class="st6">
			<g id="Group_634">
				<g>
					<defs>
						<rect id="SVGID_00000076582244820651254250000013084603265590571964_" x="0" y="0" width="19.5" height="5.2"/>
					</defs>
					<clipPath id="SVGID_00000150820139477049409520000006073020862177148818_">
						<use xlink:href="#SVGID_00000076582244820651254250000013084603265590571964_"  style="overflow:visible;"/>
					</clipPath>
					<g id="Group_633" style="clip-path:url(#SVGID_00000150820139477049409520000006073020862177148818_);">
						<path id="Path_3555" class="st8" d="M0,2.6C0,3,0.2,3.4,0.3,3.7c4.6-3.2,8.5-3.5,12.9-1.8c2.2,0.9,4.2,2,6.2,3.3
							C14.1,1.1,7.6-2.8,0,2.6"/>
					</g>
				</g>
			</g>
		</g>
	</g>
</g>
<linearGradient id="Path_3630_00000089568918749803070770000017901323438006518178_" gradientUnits="userSpaceOnUse" x1="-262.715" y1="285.6101" x2="-261.837" y2="284.6781" gradientTransform="matrix(13.3698 0 0 -11.4203 3528.0286 3266.4438)">
	<stop  offset="0" style="stop-color:#220B8B"/>
	<stop  offset="1" style="stop-color:#FFFFFF"/>
</linearGradient>
<path id="Path_3630" style="opacity:0.2;fill:url(#Path_3630_00000089568918749803070770000017901323438006518178_);" d="M28.3,13.3
	L28.3,13.3z M15,3.9l0.7,1.2L17.3,8l0,0c2.2,3.9,5.5,6.3,7.9,7c0.6,0.2,1.2,0.2,1.8,0.2c0.8-0.1,1.6-1.1,1.2-1.8
	c0.6,2.4-6.7,1.5-10.7-5.5L15.9,5l-0.7-1.3L15,3.9z"/>
<linearGradient id="Path_3631_00000175298961964279110110000000309696004466859684_" gradientUnits="userSpaceOnUse" x1="-264.3191" y1="296.7253" x2="-264.8191" y2="295.7753" gradientTransform="matrix(15.0387 0 0 -20.1648 3986.9998 5982.2603)">
	<stop  offset="0" style="stop-color:#72FAFD"/>
	<stop  offset="1" style="stop-color:#4FB6F0"/>
</linearGradient>
<path id="Path_3631" style="opacity:0.24;fill:url(#Path_3631_00000175298961964279110110000000309696004466859684_);enable-background:new    ;" d="
	M11.2,0c-0.4,0-0.8,0.1-1.1,0.2l0,0l0,0l0,0l0,0l0,0C9.7,0.4,9.4,0.6,9.2,0.8l0,0l0,0l0,0l0,0l0,0l0,0l0,0l0,0l0,0l0,0l0,0l0,0l0,0
	l0,0l0,0l0,0l0,0l0,0l0,0l0,0l0,0l0,0l0,0l0,0l0,0l0,0l0,0l0,0l0,0v0l0,0l0,0l0,0L4.5,8.6l-4.1,7.2c-0.8,1.4-0.3,3.2,1.1,4
	c0,0,0,0,0,0c2.3,1.3,4.3-1.3,6.2-2.2C7.6,17,7.7,16.4,8,15.8l4.1-7.2l2.9-5l-1.3-2.2C13.3,0.6,12.3,0,11.3,0H11.2z"/>
</svg>
