<svg xmlns="http://www.w3.org/2000/svg" xmlns:xlink="http://www.w3.org/1999/xlink" width="138.431" height="48.729" viewBox="0 0 138.431 48.729">
  <defs>
    <linearGradient id="linear-gradient" x1="0.082" y1="0.189" x2="0.999" y2="1.031" gradientUnits="objectBoundingBox">
      <stop offset="0" stop-color="#144ede"/>
      <stop offset="1" stop-color="#63eafb"/>
    </linearGradient>
    <clipPath id="clip-path">
      <path id="Path_3552" data-name="Path 3552" d="M202.874,0a7.025,7.025,0,0,0-6.013,3.517l-9.989,17.3-9.989,17.3a7.038,7.038,0,0,0,5.925,10.553h.324l.268-.154c19.838-11.453,20.243-11.632,39.494.209a7.038,7.038,0,0,0,6.249-10.553l-8.693-15.056-6.494-11.247-4.832-8.218A7.041,7.041,0,0,0,203.1,0Z" transform="translate(-175.94)" fill="url(#linear-gradient)"/>
    </clipPath>
    <clipPath id="clip-path-2">
      <rect id="Rectangle_31" data-name="Rectangle 31" width="46.905" height="12.596" fill="none"/>
    </clipPath>
    <linearGradient id="linear-gradient-3" x1="0.039" y1="0.088" x2="0.917" y2="1.02" gradientUnits="objectBoundingBox">
      <stop offset="0" stop-color="#220B8B"/>
      <stop offset="1" stop-color="#fff"/>
    </linearGradient>
    <linearGradient id="linear-gradient-4" x1="1" y1="0.05" x2="0.5" y2="1" gradientUnits="objectBoundingBox">
      <stop offset="0" stop-color="#72fafd"/>
      <stop offset="1" stop-color="#4fb6f0"/>
    </linearGradient>
  </defs>
  <g id="Group_638" data-name="Group 638" transform="translate(-133.999 -25.104)">
    <g id="Group_3722" data-name="Group 3722">
      <g id="Group_626" data-name="Group 626" transform="translate(152.386 25.104)" clip-path="url(#clip-path)">
        <rect id="Rectangle_28" data-name="Rectangle 28" width="57.454" height="50.268" transform="matrix(1, -0.027, 0.027, 1, -2.328, 0.036)" fill="url(#linear-gradient)"/>
      </g>
      <g id="Group_637" data-name="Group 637" transform="translate(133 25.104)">
        <g id="Group_640" data-name="Group 640">
          <g id="Group_632" data-name="Group 632" transform="translate(19.434 35.733)" opacity="0.42">
            <g id="Group_631" data-name="Group 631">
              <g id="Group_641" data-name="Group 641">
                <path id="Path_3554" data-name="Path 3554" d="M176.375,331.016v.009c18.349-12.955,34.011-3.561,46.905,6.267-8.787-7.88-16.625-11.412-21.207-12.559a29.844,29.844,0,0,0-25.7,6.282" transform="translate(-176.375 -324.298)" fill="#fff" fill-rule="evenodd"/>
              </g>
            </g>
          </g>
          <g id="Group_635" data-name="Group 635" transform="translate(19.435 36.131)" opacity="0.21">
            <g id="Group_634" data-name="Group 634">
              <g id="Group_633" data-name="Group 633" clip-path="url(#clip-path-2)">
                <path id="Path_3555" data-name="Path 3555" d="M176.385,334.244a7.079,7.079,0,0,0,.833,2.587c11.074-7.6,20.478-8.453,31.157-4.363,3.694,1.415,8.186,3.9,14.916,8.043-12.894-9.827-28.557-19.221-46.905-6.267" transform="translate(-176.385 -327.915)" fill="#0c0c0e" fill-rule="evenodd"/>
              </g>
            </g>
          </g>
        </g>
      </g>
      <path id="Path_3556" data-name="Path 3556" d="M367.338,103.335h0ZM335.413,80.7l1.634,2.782,4,6.94v0c5.4,9.359,13.243,15.246,18.976,16.78a13.488,13.488,0,0,0,4.454.518c2.028-.164,3.871-2.634,2.858-4.391,1.564,5.843-16.146,3.71-25.872-13.148l-4.005-6.944-1.773-3.017Z" transform="translate(-165.268 -46.159)" fill="url(#linear-gradient-3)"/>
      <path id="Path_3559" data-name="Path 3559" d="M36,0a7.132,7.132,0,0,0-2.763.6l-.006,0-.1.045h0l-.1.048h0A7,7,0,0,0,31.19,1.975l0,0-.081.08,0,0-.078.079-.006.007-.082.086-.007.008-.073.08-.014.015-.061.069-.029.033L30.7,2.5l-.025.03-.055.066-.017.021-.054.068-.028.035-.045.059-.028.037-.039.053-.033.046-.037.051-.033.047-.033.048-.036.053-.008.011-.05.077-.013.021-.054.084-.009.014-.057.093,0,.007-.059.1L20,20.818l-9.989,17.3a7.036,7.036,0,0,0,2.575,9.611c5.453,3.107,10.427-3.1,14.917-5.27a7,7,0,0,1,.895-4.341l9.989-17.3L45.3,8.84l-3.05-5.187A7.043,7.043,0,0,0,36.312,0H36Z" transform="translate(124.932 25.104)" opacity="0.572" fill="url(#linear-gradient-4)"/>
    </g>
    <path id="Path_3561" data-name="Path 3561" d="M-34.44-29.566V-21.1h2.474V-3.468h3.6V-21.1H-8.732Zm16.958,10.244a3.088,3.088,0,0,0-2.882,1.994v-1.753h-3.6V-3.468h3.6v-11.1c0-1.081.312-1.393.913-1.393s.913.312.913,1.393v1.2h3.6v-.961C-14.936-17.712-15.344-19.322-17.482-19.322Zm4.708.24V-3.468h3.6V-19.081ZM2.262-5.774v-8.551c0-3.387-1.345-5-4.492-5s-4.54,1.609-4.54,5v.48h3.6v-.48c0-1.153.24-1.633.937-1.633.649,0,.889.24.889,1.129-.024,2.546-5.669,2.018-5.669,7.542,0,2.834,1.417,4.059,3.027,4.059A2.6,2.6,0,0,0-1.341-5.222,2.157,2.157,0,0,0-.62-3.468H2.5A6.809,6.809,0,0,1,2.262-5.774Zm-3.6-1.417a1.4,1.4,0,0,1-1.057.6C-3-6.591-3.406-7-3.406-7.936c0-1.465,1.321-1.946,2.066-3.027ZM9.853-19.081v1.753a3.064,3.064,0,0,0-2.81-1.994c-2.21,0-2.618,1.609-2.618,5v6.1c0,3.387.408,5,2.618,5a3.064,3.064,0,0,0,2.81-1.994V-3.9c0,1.633-.48,1.874-1.393,1.874H5.145V1.336H9.42c3.387,0,4.035-1.369,4.035-5.236V-19.081ZM8.94-6.591c-.6,0-.913-.24-.913-1.393v-6.581c0-1.153.312-1.393.913-1.393s.913.24.913,1.393v6.581C9.853-6.831,9.54-6.591,8.94-6.591ZM20.133-19.322c-2.906,0-4.516,1.609-4.516,5.477V-8.7c0,3.867,1.609,5.477,4.516,5.477S24.649-4.837,24.649-8.7v-.889h-3.6V-8.7c0,1.633-.12,2.114-.913,2.114s-.913-.48-.913-2.114v-1.85h5.428v-3.291C24.649-17.712,23.04-19.322,20.133-19.322Zm.913,6.365H19.22v-.889c0-1.633.12-2.114.913-2.114.769,0,.913.48.913,2.114Z" transform="translate(247.781 72.497)" fill="#fff"/>
  </g>
</svg>
