<?xml version="1.0" encoding="utf-8"?>
<!-- Generator: Adobe Illustrator 23.0.5, SVG Export Plug-In . SVG Version: 6.00 Build 0)  -->
<svg version="1.1" id="Layer_1" xmlns="http://www.w3.org/2000/svg" xmlns:xlink="http://www.w3.org/1999/xlink" x="0px" y="0px"
	 viewBox="0 0 59.1 30.9" style="enable-background:new 0 0 59.1 30.9;" xml:space="preserve">
<style type="text/css">
	.st0{fill:#FFFFFF;}
</style>
<path id="Path_3561" class="st0" d="M0,0v8.5h2.5v17.6h3.6V8.5h19.6L0,0z M17,10.2c-1.3,0-2.4,0.8-2.9,2v-1.8h-3.6v15.6h3.6V15
	c0-1.1,0.3-1.4,0.9-1.4s0.9,0.3,0.9,1.4v1.2h3.6v-1C19.5,11.9,19.1,10.2,17,10.2z M21.7,10.5v15.6h3.6V10.5L21.7,10.5z M36.7,23.8
	v-8.6c0-3.4-1.3-5-4.5-5s-4.5,1.6-4.5,5v0.5h3.6v-0.5c0-1.2,0.2-1.6,0.9-1.6c0.6,0,0.9,0.2,0.9,1.1c0,2.5-5.7,2-5.7,7.5
	c0,2.8,1.4,4.1,3,4.1c1.2,0.1,2.4-0.8,2.6-2c0,0.7,0.2,1.3,0.7,1.8h3.1C36.7,25.3,36.6,24.6,36.7,23.8z M33.1,22.4
	c-0.2,0.4-0.6,0.6-1.1,0.6c-0.6,0-1-0.4-1-1.3c0-1.5,1.3-1.9,2.1-3L33.1,22.4z M44.3,10.5v1.8c-0.4-1.2-1.6-2-2.8-2
	c-2.2,0-2.6,1.6-2.6,5v6.1c0,3.4,0.4,5,2.6,5c1.3,0,2.4-0.8,2.8-2v1.3c0,1.6-0.5,1.9-1.4,1.9h-3.3v3.4h4.3c3.4,0,4-1.4,4-5.2V10.5
	H44.3z M43.4,23c-0.6,0-0.9-0.2-0.9-1.4V15c0-1.2,0.3-1.4,0.9-1.4c0.6,0,0.9,0.2,0.9,1.4v6.6C44.3,22.7,44,23,43.4,23z M54.6,10.2
	c-2.9,0-4.5,1.6-4.5,5.5v5.1c0,3.9,1.6,5.5,4.5,5.5s4.5-1.6,4.5-5.5V20h-3.6v0.9c0,1.6-0.1,2.1-0.9,2.1s-0.9-0.5-0.9-2.1V19h5.4
	v-3.3C59.1,11.9,57.5,10.2,54.6,10.2z M55.5,16.6h-1.8v-0.9c0-1.6,0.1-2.1,0.9-2.1c0.8,0,0.9,0.5,0.9,2.1V16.6z"/>
</svg>
